<mxfile host="app.diagrams.net" modified="2023-09-13T13:24:14.706Z" agent="Mozilla/5.0 (Windows NT 10.0; Win64; x64) AppleWebKit/537.36 (KHTML, like Gecko) Chrome/118.0.0.0 Safari/537.36 Edg/118.0.0.0" version="21.7.5" etag="x1BoZw0L9DKWrEqWM3B-" type="github">
  <diagram name="Page-1" id="l3Y4IoNmtJYJUW7Ulvv-">
    <mxGraphModel>
      <root>
        <mxCell id="0" />
        <mxCell id="1" parent="0" />
      </root>
    </mxGraphModel>
  </diagram>
</mxfile>
